<?xml version="1.0" encoding="UTF-8"?>
<svg width="61px" height="64px" viewBox="0 0 61 64" version="1.1" xmlns="http://www.w3.org/2000/svg" xmlns:xlink="http://www.w3.org/1999/xlink">
    <!-- Generator: Sketch 52.2 (67145) - http://www.bohemiancoding.com/sketch -->
    <title>search</title>
    <desc>Created with Sketch.</desc>
    <defs>
        <path d="M518.001327,83.5845497 C514.727141,80.1241155 512.719259,75.4531395 512.719259,70.3131976 C512.719259,59.6468131 521.366073,51 532.032457,51 C542.698842,51 551.345655,59.6468131 551.345655,70.3131976 C551.345655,80.9795821 542.698842,89.6263952 532.032457,89.6263952 C528.252292,89.6263952 524.725783,88.5403618 521.747926,86.6632893 C521.727443,86.6857042 521.706358,86.7077656 521.68467,86.7294529 L504.028358,104.385765 C503.247309,105.166814 501.980979,105.166814 501.199931,104.385765 L500.614235,103.800069 C499.833186,103.019021 499.833186,101.752691 500.614235,100.971642 L518.001327,83.5845497 Z M531.944666,85.8324359 C540.734951,85.8324359 547.860884,78.93036 547.860884,70.4162179 C547.860884,61.9020759 540.734951,55 531.944666,55 C523.154382,55 516.028448,61.9020759 516.028448,70.4162179 C516.028448,78.93036 523.154382,85.8324359 531.944666,85.8324359 Z" id="path-1"></path>
        <filter x="-12.7%" y="-12.0%" width="133.1%" height="131.5%" filterUnits="objectBoundingBox" id="filter-2">
            <feOffset dx="2" dy="2" in="SourceAlpha" result="shadowOffsetOuter1"></feOffset>
            <feGaussianBlur stdDeviation="2.5" in="shadowOffsetOuter1" result="shadowBlurOuter1"></feGaussianBlur>
            <feColorMatrix values="0 0 0 0 0   0 0 0 0 0   0 0 0 0 0  0 0 0 0.5 0" type="matrix" in="shadowBlurOuter1"></feColorMatrix>
        </filter>
    </defs>
    <g id="Page-1" stroke="none" stroke-width="1" fill="none" fill-rule="evenodd">
        <g id="Icons" transform="translate(-498.000000, -48.000000)">
            <g id="search">
                <use fill="black" fill-opacity="1" filter="url(#filter-2)" xlink:href="#path-1"></use>
                <use fill="#F8F8F8" fill-rule="evenodd" xlink:href="#path-1"></use>
            </g>
        </g>
    </g>
</svg>