<?xml version="1.0" encoding="UTF-8"?>
<svg width="66px" height="60px" viewBox="0 0 66 60" version="1.1" xmlns="http://www.w3.org/2000/svg" xmlns:xlink="http://www.w3.org/1999/xlink">
    <!-- Generator: Sketch 52.2 (67145) - http://www.bohemiancoding.com/sketch -->
    <title>settings</title>
    <desc>Created with Sketch.</desc>
    <defs>
        <filter x="-21.9%" y="-25.0%" width="144.4%" height="150.0%" filterUnits="objectBoundingBox" id="filter-1">
            <feOffset dx="2" dy="2" in="SourceAlpha" result="shadowOffsetOuter1"></feOffset>
            <feGaussianBlur stdDeviation="2.5" in="shadowOffsetOuter1" result="shadowBlurOuter1"></feGaussianBlur>
            <feColorMatrix values="0 0 0 0 0   0 0 0 0 0   0 0 0 0 0  0 0 0 0.5 0" type="matrix" in="shadowBlurOuter1" result="shadowMatrixOuter1"></feColorMatrix>
            <feMerge>
                <feMergeNode in="shadowMatrixOuter1"></feMergeNode>
                <feMergeNode in="SourceGraphic"></feMergeNode>
            </feMerge>
        </filter>
    </defs>
    <g id="Page-1" stroke="none" stroke-width="1" fill="none" fill-rule="evenodd">
        <g id="Icons" transform="translate(-392.000000, -51.000000)" fill="#F8F8F8">
            <g id="settings" filter="url(#filter-1)" transform="translate(393.816234, 51.000000)">
                <path d="M4.81453195,35.6664949 C4.9913066,34.9070498 5.23945811,34.1775864 5.55097109,33.4866372 L4.21528637,30.3231733 L5.19795682,29.3405029 L6.18062727,28.3578324 L8.6492736,29.4001498 C9.90207752,28.3631206 11.3765762,27.6152587 12.9843328,27.2507065 L14.1923077,24.2307692 L15.5769231,24.2307692 L16.9615385,24.2307692 L18.2529466,27.4592896 C19.1833413,27.7494384 20.0613345,28.1701454 20.8682345,28.7015129 L23.7076969,27.5026288 L24.6903673,28.4852993 L25.6730378,29.4679697 L24.399337,32.4846296 C24.957383,33.4588877 25.382249,34.5290647 25.6470065,35.6664949 L29.0769231,37.0384615 L29.0769231,38.4230769 L29.0769231,39.8076923 L25.6470065,41.1796589 C25.3630613,42.3995215 24.8949599,43.5420296 24.2759199,44.5718225 L25.6730378,47.8807859 L24.6903673,48.8634564 L23.7076969,49.8461268 L20.3863859,48.4437955 C19.5995113,48.9035379 18.7526097,49.261309 17.8613793,49.5003978 L16.6153846,52.6153846 L15.2307692,52.6153846 L13.8461538,52.6153846 L12.6001591,49.5003978 C11.6379333,49.2422632 10.7273802,48.8457848 9.88825603,48.3319935 L9.97923767,48.4099162 L6.5776861,49.8461268 L5.59501564,48.8634564 L4.61234519,47.8807859 L6.04855585,44.4792344 L6.33536702,44.8141119 C5.64180118,43.7223299 5.12094212,42.4960338 4.81453195,41.1796589 L1.38461538,39.8076923 L1.38461538,38.4230769 L1.38461538,37.0384615 L4.81453195,35.6664949 Z M15.2307692,44.7692308 C18.523236,44.7692308 21.1923077,41.9279609 21.1923077,38.4230769 C21.1923077,34.9181929 18.523236,32.0769231 15.2307692,32.0769231 C11.9383025,32.0769231 9.26923077,34.9181929 9.26923077,38.4230769 C9.26923077,41.9279609 11.9383025,44.7692308 15.2307692,44.7692308 Z" id="Combined-Shape" transform="translate(15.230769, 38.423077) rotate(5.000000) translate(-15.230769, -38.423077) "></path>
                <path d="M28.9978885,25.3354341 C29.2364952,24.2414985 29.6148998,23.199798 30.1134431,22.2299915 L29.9641068,22.4025093 L28.4688715,18.594636 L29.6251905,17.438317 L30.7815095,16.281998 L34.1414921,17.6013604 C35.3856854,16.7244703 36.793079,16.0636229 38.3091129,15.6733782 L39.732496,11.8776897 L41.2901884,11.8776897 L42.8478807,11.8776897 L44.2281923,15.5585209 C45.4045385,15.8126044 46.520746,16.22828 47.5524233,16.7811562 L51.2110333,15.3445319 L52.3673523,16.5008509 L53.5236713,17.6571699 L52.2023206,21.0222162 C53.0770104,22.3449795 53.7127859,23.8395711 54.0481501,25.4444939 L57.488926,26.7347848 L57.488926,28.2924771 L57.488926,29.8501695 L53.9405241,31.1808202 C53.6158265,32.485501 53.0910802,33.7110896 52.4007386,34.8231323 L53.5236713,37.682873 L52.3673523,38.839192 L51.2110333,39.995511 L48.385522,38.8860192 C47.1257463,39.6888993 45.716172,40.2775842 44.2081016,40.6007713 L43.0763198,43.6188562 L41.5186275,43.6188562 L39.9609351,43.6188562 L38.8304165,40.6041399 C37.2312902,40.2635565 35.7426117,39.6245168 34.4254656,38.7481053 L31.2487329,39.995511 L30.0924139,38.839192 L28.9360949,37.682873 L30.285084,34.2474409 C29.7014453,33.1877629 29.2634807,32.0365718 28.998176,30.8208535 L29.0292471,31.191812 L24.8754009,29.6341197 L24.8754009,28.0764273 L24.8754009,26.518735 L29.0292471,24.9610427 L28.9978885,25.3354341 Z M41.5113753,35.1928694 C45.4410937,35.1928694 48.6267599,32.0072032 48.6267599,28.0774848 C48.6267599,24.1477664 45.4410937,20.9621002 41.5113753,20.9621002 C37.5816569,20.9621002 34.3959907,24.1477664 34.3959907,28.0774848 C34.3959907,32.0072032 37.5816569,35.1928694 41.5113753,35.1928694 Z" id="Combined-Shape-Copy-8" transform="translate(41.182163, 27.748273) rotate(18.000000) translate(-41.182163, -27.748273) "></path>
                <path d="M10.6698669,11.4868711 C10.8348918,10.8420248 11.0723516,10.2261816 11.3730646,9.64852327 L10.4527487,7.27820665 L11.237938,6.49301732 L12.0231274,5.70782798 L14.1259934,6.52430166 C15.0057993,5.91373889 16.0042867,5.46218046 17.0798684,5.21121362 L18.0963255,2.50066124 L19.1347871,2.50066124 L20.1732486,2.50066124 L21.2060178,5.25471253 C21.9866536,5.45448777 22.7247856,5.7604162 23.4041243,6.15620831 L23.3099286,6.07454781 L25.8770272,5.07782794 L26.6622165,5.86301727 L27.4474059,6.64820661 L26.4674681,9.17208196 C26.9276265,9.93416132 27.2735964,10.7729395 27.4816753,11.664714 L30.1922277,12.6811711 L30.1922277,13.7196327 L30.1922277,14.7580942 L27.4381764,15.7908634 C27.248047,16.5338073 26.9617679,17.2382527 26.5933812,17.8901576 L27.4474059,20.089738 L26.6622165,20.8749274 L25.8770272,21.6601167 L23.8216791,20.8620927 C23.1373521,21.3146899 22.3849478,21.6726433 21.5831212,21.9172981 L20.6285684,24.4627722 L19.5901069,24.4627722 L18.5516453,24.4627722 L17.6982807,22.1871331 C16.4694823,21.9937964 15.3265615,21.5418621 14.3269783,20.8887905 L12.3403918,21.6601167 L11.5552024,20.8749274 L10.7700131,20.089738 L11.5799574,18.0036886 C11.1499655,17.2689827 10.8252079,16.4651989 10.626368,15.6130205 L7.91581562,14.5965634 L7.91581562,13.5581018 L7.91581562,12.5196403 L10.6698669,11.4868711 Z M19.0540216,18.4465596 C21.7092368,18.4465596 23.8617139,16.2940824 23.8617139,13.6388673 C23.8617139,10.9836521 21.7092368,8.83117495 19.0540216,8.83117495 C16.3988065,8.83117495 14.2463293,10.9836521 14.2463293,13.6388673 C14.2463293,16.2940824 16.3988065,18.4465596 19.0540216,18.4465596 Z" id="Combined-Shape-Copy-9" transform="translate(19.054022, 13.481717) rotate(-14.000000) translate(-19.054022, -13.481717) "></path>
            </g>
        </g>
    </g>
</svg>